<svg viewBox="0 0 389 75" xmlns="http://www.w3.org/2000/svg"><g fill="currentColor"><path d="M165.809 16.801c-1.156.701-1.786 1.577-2.206 3.119-.21.876-.175.91 2.731 1.506 3.362.666 6.934 2.278 10.646 4.73 6.864 4.625 9.91 5.956 14.113 6.132 1.435.07 2.626.245 2.626.42s.35-.84.35-2.312c0-2.733-.7-3.469-3.992-4.065-2.801-.525-6.373-2.242-11.066-5.325-6.969-4.59-10.646-5.781-13.202-4.205z" fill="#2e35b1"/><path d="M267.54 22.968c-3.048 1.787-3.608 2.803-1.577 3.013l1.12.105.106 3.259.105 3.258-1.33-.666c-4.203-2.137-8.896-.595-11.032 3.574-1.05 2.032-1.26 6.482-.455 8.97 1.576 4.73 6.829 6.972 11.136 4.765l1.646-.806v.806c0 .77.035.77 3.432.595 1.856-.105 3.537-.315 3.712-.49.455-.42-.035-1.367-.77-1.367-1.436 0-1.471-.315-1.471-13.734V21.356h-.946c-.56.035-2.206.736-3.677 1.612zm-1.647 11.107l1.19.805.106 5.676.07 5.676-1.12.701c-2.277 1.367-5.148.736-6.234-1.401-1.366-2.663-1.19-8.48.315-10.511 1.366-1.892 3.712-2.278 5.673-.946zM209.688 33.864c-2.452 6.517-4.728 12.228-5.008 12.649-.28.455-1.05 1.05-1.716 1.331-.84.35-1.19.7-1.12 1.121.105.526.665.596 4.412.701l4.272.105v-.91c0-.702-.175-.877-.84-.877-.456 0-1.19-.28-1.611-.63l-.736-.596.911-2.558.945-2.522h10.331l.98 2.662c.946 2.593.946 2.698.35 3.154-.384.28-1.015.49-1.47.49-.63 0-.805.21-.805.876v.876h11.206v-.84c0-.596-.245-.912-.876-1.052-.49-.14-1.085-.56-1.366-1.016-.28-.42-2.346-5.57-4.587-11.457-2.241-5.851-4.342-11.247-4.623-11.983-.525-1.296-.56-1.331-2.346-1.331h-1.786l-4.517 11.807zm6.933.456l1.821 4.73-3.992.105c-2.206.035-4.062.035-4.132-.035-.07-.035.806-2.418 1.891-5.29 1.33-3.504 2.066-5.046 2.276-4.73.175.28 1.12 2.627 2.136 5.22zM233.746 32.463c-3.187 1.857-3.747 2.768-1.751 2.978l1.12.105V47.46l-1.155.35c-.876.245-1.12.49-1.05 1.051.104.666.35.7 4.832.7 4.622 0 4.727 0 4.832-.805.106-.63-.035-.77-.735-.77-1.54 0-1.68-.561-1.576-7.043l.105-6.097 1.891-.63c2.277-.771 4.098-.35 4.623 1.05.175.456.315 3.26.315 6.237 0 5.711-.21 6.482-1.786 6.482-.49 0-.665.246-.665.876v.911l4.832-.105c4.518-.105 4.798-.14 4.798-.806 0-.42-.28-.736-.7-.806-1.506-.28-1.576-.63-1.576-6.517 0-3.083-.175-6.201-.35-6.902-.981-3.504-5.218-4.59-10.051-2.593-1.54.666-1.436.666-1.576-.28-.175-1.261-1.296-1.086-4.377.7zM282.702 31.342c-2.1.595-3.326 1.366-4.867 3.118-3.082 3.539-2.557 10.266 1.085 13.384 3.817 3.224 10.506 2.908 13.833-.7 4.412-4.766 2.766-12.964-3.117-15.417-1.926-.806-4.833-.946-6.934-.385zm5.673 2.908c1.261 1.191 1.646 2.733 1.646 6.552-.035 4.905-1.365 7.182-4.307 7.182-3.152 0-4.482-1.892-4.728-6.657-.245-4.66.84-7.323 3.187-8.023 1.576-.456 3.047-.105 4.202.946zM300.107 32.428c-2.942 1.717-3.572 2.803-1.751 3.013l.945.105.105 5.746c.105 5.956-.07 6.692-1.365 6.692-.49 0-.666.246-.666.876v.876h9.455v-.876c0-.63-.175-.876-.665-.876-1.576 0-1.786-.77-1.786-6.341 0-2.909.14-5.571.35-5.922.175-.35.806-.806 1.366-.98.91-.316 1.19-.246 2.346.665 1.576 1.226 2.347 1.296 3.467.14 1.05-1.016 1.12-2.242.175-3.398-1.26-1.612-4.202-1.472-6.548.28l-1.156.876v-1.227c0-1.086-.105-1.26-.77-1.26-.456.034-2.031.735-3.502 1.61zM316.46 32.498c-3.116 1.857-3.711 2.768-1.855 2.943l1.155.105.105 5.746c.105 5.992-.035 6.552-1.435 6.762-.49.07-.77.35-.77.806 0 .666.28.7 4.832.806l4.797.105v-.91c0-.631-.175-.877-.665-.877-1.576 0-1.786-.736-1.786-6.622 0-5.921 0-5.956 1.821-6.657.805-.28 1.12-.21 2.241.701 1.576 1.226 2.347 1.296 3.467.14 1.05-1.016 1.12-2.242.175-3.398-1.26-1.612-4.202-1.472-6.548.28l-1.156.876v-1.227c0-1.086-.105-1.26-.77-1.26-.456.034-2.066.77-3.607 1.68zM335.511 31.272c-3.362.77-5.183 2.347-5.218 4.45 0 1.47.49 2.102 1.681 2.102 1.33 0 2.101-.596 2.802-2.208.805-1.787 1.4-2.312 2.976-2.593 1.891-.28 2.697.736 2.697 3.399 0 1.997-.035 2.102-.946 2.312-3.957.876-6.618 1.752-7.95 2.628-3.501 2.348-3.501 6.517 0 8.094 2.172.946 4.413.736 7.145-.7 1.996-1.017 2.066-1.017 2.311-.351.21.77 2.101 1.681 3.362 1.681.455 0 1.4-.175 2.136-.385 1.086-.28 1.296-.49 1.296-1.331s-.105-.981-.806-.841c-1.4.28-1.576-.456-1.716-6.973-.105-5.606-.175-6.271-.84-7.182-1.506-2.067-5.218-2.943-8.93-2.102zm4.938 11.912v2.558l-1.226.596c-1.576.735-3.817.77-4.517.035-.316-.28-.56-1.052-.56-1.717 0-1.857 2.346-3.399 6.058-3.994.14 0 .245 1.12.245 2.522z"/><path d="M168.336 53.01c.296-.233-.358-2.674-.904-4.81-.918-3.524-.979-4.61-.732-10.294.397-8.186.046-11.22-1.65-14.588-.698-1.454-1.361-2.687-1.422-2.722-.485-.28-3.177 1.442-3.685 2.321-.49.85-.45 1.48.36 4.213 1.116 3.882 1.156 4.512.882 11.434-.354 9.303.056 11.886 2.103 13.594.852.695 1.481.937 2.87 1.052.986.043 1.964-.04 2.178-.2z" fill="#eae726"/><path d="M193.924 32.857c-.35-.14-2.137 1.647-3.712 3.189-2.592 2.557-3.502 3.153-8.545 5.78-7.284 3.75-9.735 5.572-11.801 8.725-.91 1.331-1.646 2.523-1.646 2.593 0 .56 2.836 2.032 3.852 2.032.98 0 1.506-.35 3.467-2.418 2.801-2.908 3.326-3.258 9.455-6.482 8.23-4.344 10.26-5.99 10.716-8.619.175-1.086.07-1.752-.526-3.013-.455-.876-1.015-1.682-1.26-1.787z" fill="#c43333"/></g><path d="M138.607 64.806a.6.6 0 10-.6-.6c-.05.35.25.65.6.6zm0-54a.645.645 0 00.6-.6.6.6 0 10-1.2 0 .577.577 0 00.6.6zm0 20.2a.6.6 0 10-.6-.6.577.577 0 00.6.6zm0-16.9a.645.645 0 00.6-.6.6.6 0 10-1.2 0c-.05.35.25.65.6.6zm0 47.3a.6.6 0 10-.6-.6c-.05.35.25.65.6.6zm0-40.5a.6.6 0 10-.6-.6.577.577 0 00.6.6zm0-13.5a.645.645 0 00.6-.6.6.6 0 10-1.2 0 .577.577 0 00.6.6zm0 20.3a.6.6 0 10-.6-.6.577.577 0 00.6.6zm0 40.5a.6.6 0 10-.6-.6c-.05.35.25.65.6.6zm0-10.1a.6.6 0 10-.6-.6c-.05.35.25.65.6.6zm0-16.9a.6.6 0 10-.6-.6.577.577 0 00.6.6zm0-3.4a.6.6 0 10-.6-.6.577.577 0 00.6.6zm0-3.4a.6.6 0 10-.6-.6.577.577 0 00.6.6zm0 20.3a.6.6 0 10-.6-.6.577.577 0 00.6.6zm0-37.2a.6.6 0 10-.6-.6.577.577 0 00.6.6zm0 30.4a.6.6 0 10-.6-.6.577.577 0 00.6.6zm0-23.6a.6.6 0 10-.6-.6.577.577 0 00.6.6zm0 20.3a.6.6 0 10-.6-.6.577.577 0 00.6.6zm0 6.7a.6.6 0 10-.6-.6.577.577 0 00.6.6zm-40.9-32.7h2.9c2.9 0 4.5-1.6 4.5-3.9s-1.6-3.9-4.5-3.9h-4.9v11.6h2zm0-5.9h2.8a2.106 2.106 0 012.4 2.2 2.107 2.107 0 01-2.4 2.2h-2.8zm5.8 21.7h-6.1c0-2.5 6.1-3.1 6.1-6.8 0-2.3-2-3.3-4.2-3.3a7.036 7.036 0 00-3.8 1.1l.3 1.6a6.612 6.612 0 013.3-1.2c1.3 0 2.4.5 2.4 1.8 0 2.8-6.3 2.9-6.3 7.3v1.1h8.6zm2.5 18v-.7h-7.8v11.6h8v-.7h-7.3v-5h6.8l-.2-.7h-6.6v-4.7zm-14.4-2.5a4.15 4.15 0 004.7-3.8v-8.1l-.7.2v7.3a4.063 4.063 0 01-4.4 3.8 4.26 4.26 0 01-3.8-3.8v-7.5l-.7.2v7.3a4.507 4.507 0 004.4 4.4c.2.1.4 0 .5 0zm20.1-27.2a5.73 5.73 0 006.1-5.4v-.7a6.234 6.234 0 00-6.4-6 6.134 6.134 0 00-5.9 6 5.728 5.728 0 005.5 6c.225.075.463.109.7.1zm0-10.2a3.976 3.976 0 014.1 3.7v.6a4.06 4.06 0 01-3.9 4.3 4.127 4.127 0 01-4.3-3.9v-.4a3.934 3.934 0 013.5-4.3zm-7.3 17.8c0 3.3 1.7 6 5.1 6 3.5 0 5.1-2.7 5.1-6s-1.7-6-5.1-6c-3.5.1-5.1 2.8-5.1 6zm8.2 0c0 2.6-1 4.4-3.1 4.4s-3.1-1.8-3.1-4.4c0-2.6 1-4.4 3.1-4.4s3.1 1.9 3.1 4.4zm8.7 7.8l-.7.2v11.5h.7zm-15.9 5.8a2.704 2.704 0 001.8-2.7c0-2.1-1.5-3-4-3h-4.4v11.6h4.8c2.5 0 3.8-1 3.8-3.1a2.303 2.303 0 00-2-2.8zm-5.9-5.1h3.5c1.8 0 3.5.2 3.5 2.4 0 2.2-1.6 2.3-3.5 2.3h-3.5zm4 10.3h-4v-5h4c1.9 0 3.3.4 3.3 2.5s-1.4 2.5-3.3 2.5zm9.8-10.9l-5.1 11.6h.7l1.3-3.1h6.8l1.4 3.2.7-.2-5.1-11.7zm-2.8 7.8l3.1-7.2 3.1 7.2zm-44-9.7a2.733 2.733 0 00-2.7-2.6 3.288 3.288 0 00-1.9.6 5.667 5.667 0 00-.1-1.3l-.3-1.2c.652.2 1.348.2 2 0a2.43 2.43 0 001.7-1.7 4.272 4.272 0 00-.1-2.5c-.7-2-2.1-3-3.7-2.4a3.555 3.555 0 00-1.6 1.1 6.12 6.12 0 00-.5-1.2 6.714 6.714 0 00-.7-1.1 2.874 2.874 0 001.8-.7 2.61 2.61 0 001.1-2.1 3.337 3.337 0 00-.9-2.3c-1.2-1.7-2.9-2.2-4.3-1.1a3.97 3.97 0 00-1.2 1.6 3.907 3.907 0 00-.8-1 3.907 3.907 0 00-1-.8 3.78 3.78 0 001.6-1.2 2.6 2.6 0 00.4-2.4 3.105 3.105 0 00-1.5-2c-1.7-1.3-3.4-1.2-4.4.3a3.809 3.809 0 00-.6 1.9 4.12 4.12 0 00-1.1-.7 6.06 6.06 0 00-1.2-.5 3.555 3.555 0 001.1-1.6c.306-.8.194-1.7-.3-2.4a3.928 3.928 0 00-2.1-1.4c-2-.7-3.6 0-4.1 1.6-.2.651-.2 1.348 0 2a5.068 5.068 0 01-1.3-.2 5.253 5.253 0 00-1.3-.1c.391-.557.601-1.22.6-1.9a2.652 2.652 0 00-1.1-2.2 4.645 4.645 0 00-2.3-.6 2.168 2.168 0 00-.8.1 2.83 2.83 0 00-2.6 2.8c-.001.68.209 1.343.6 1.9a5.667 5.667 0 00-1.3.1l-1.2.3c.2-.652.2-1.349 0-2a2.43 2.43 0 00-1.7-1.7 4.264 4.264 0 00-2.5.1c-2 .7-2.9 2.1-2.4 3.8a3.555 3.555 0 001.1 1.6 6.06 6.06 0 00-1.2.5 6.69 6.69 0 00-1.1.7 4.235 4.235 0 00-.6-1.9 2.608 2.608 0 00-2.1-1.1 3.519 3.519 0 00-2.3.9c-1.7 1.3-2.1 2.9-1.1 4.3.394.558.954.978 1.6 1.2-.375.21-.713.48-1 .8-.32.287-.59.625-.8 1a3.109 3.109 0 00-1.2-1.6 2.596 2.596 0 00-2.4-.4 3.329 3.329 0 00-1.9 1.6 2.988 2.988 0 00-.1 4.2l.3.3a7.812 7.812 0 001.8.5c-.29.327-.526.698-.7 1.1a6.12 6.12 0 00-.5 1.2 3.555 3.555 0 00-1.6-1.1c-.8-.307-1.7-.194-2.4.3a4.35 4.35 0 00-1.4 2.1c-.7 2 0 3.6 1.6 4.2.652.2 1.348.2 2 0a2.655 2.655 0 00-.3 1.2c-.087.427-.12.864-.1 1.3a3.288 3.288 0 00-1.9-.6 2.477 2.477 0 00-2.1 1.1 3.59 3.59 0 00-.6 2.2c0 2.1 1.1 3.5 2.8 3.5a3.296 3.296 0 001.9-.6c-.016.435.017.872.1 1.3l.3 1.2a3.392 3.392 0 00-2 0 2.43 2.43 0 00-1.7 1.7 4.272 4.272 0 00.1 2.5c.7 2 2.1 3 3.7 2.4a3.555 3.555 0 001.6-1.1 6.978 6.978 0 001.1 2.3 3.4 3.4 0 00-1.9.7 2.517 2.517 0 00-1 2.1 3.34 3.34 0 00.9 2.3c1.2 1.7 2.9 2.2 4.3 1.1a3.253 3.253 0 001.2-1.6c.21.375.48.712.8 1 .287.319.625.59 1 .8a3.763 3.763 0 00-1.6 1.2 2.602 2.602 0 00-.4 2.4c.264.788.795 1.46 1.5 1.9a2.87 2.87 0 004.1.1l.3-.3c.405-.55.616-1.218.6-1.9.327.29.699.526 1.1.7.381.208.783.376 1.2.5a3.555 3.555 0 00-1.1 1.6c-.306.8-.194 1.7.3 2.4a3.928 3.928 0 002.1 1.4c2 .7 3.6 0 4.1-1.6.2-.652.2-1.349 0-2a6.91 6.91 0 002.5.4 3.296 3.296 0 00-.6 1.9 2.656 2.656 0 001.1 2.2c.704.484 1.546.73 2.4.7 2.1 0 3.4-1.1 3.4-2.8a3.296 3.296 0 00-.6-1.9c.436.016.872-.017 1.3-.1l1.2-.3c-.2.651-.2 1.348 0 2a2.43 2.43 0 001.7 1.7 4.272 4.272 0 002.5-.1c2-.7 2.9-2.1 2.4-3.8a3.555 3.555 0 00-1.1-1.6 6.182 6.182 0 001.2-.5 6.714 6.714 0 001.1-.7c.036.689.28 1.352.7 1.9a2.608 2.608 0 002.1 1.1 3.529 3.529 0 002.3-.9c1.7-1.3 2.1-2.9 1.1-4.3a3.253 3.253 0 00-1.6-1.2 5.802 5.802 0 001.8-1.8 3.777 3.777 0 001.2 1.6 2.602 2.602 0 002.4.4 3.587 3.587 0 001.9-1.5 2.988 2.988 0 00.1-4.2l-.3-.3a3.99 3.99 0 00-1.8-.7 6.144 6.144 0 001.1-2.3c.421.508.975.889 1.6 1.1.8.306 1.7.193 2.4-.3a4.35 4.35 0 001.4-2.1c.7-2 0-3.6-1.6-4.2a3.392 3.392 0 00-2 0c.193-.371.296-.782.3-1.2.087-.428.121-.865.1-1.3.556.391 1.22.601 1.9.6a2.479 2.479 0 002.1-1.1 4.197 4.197 0 00.7-2.4c0-.3-.1-.6-.1-.9zm-6.8-8.5l.1-.2a2.918 2.918 0 011.8-1.8c1.9-.6 2.8 1.4 3 2 .232.676.267 1.404.1 2.1a2.1 2.1 0 01-1.3 1.3h-.6a3.148 3.148 0 01-2.1-.5l-.1-.1a4.52 4.52 0 00-2.8-.7 4.306 4.306 0 001.9-2.1zm-10.4 20l-2.3-2.4 2.9 1.5c.489.28 1.08.317 1.6.1l.6-.3a3.64 3.64 0 00.9 3.2 3.5 3.5 0 00-3.3.1l.1-.7a1.65 1.65 0 00-.5-1.5zm-.9 6.9a3.88 3.88 0 00-3.2-1l.3-.6a1.807 1.807 0 00-.1-1.6l-.1-.1-1.5-2.9v-.1l2.3 2.4c.406.382.942.597 1.5.6l.7-.1a4.452 4.452 0 00.1 3.4zm-22.5-1.6l.3.6a3.783 3.783 0 00-3.2 1 3.714 3.714 0 00-.1-3.4l.7.1h.5a2.395 2.395 0 001.1-.6l.1-.1 2.3-2.3.1-.1-1.5 3c-.422.5-.537 1.19-.3 1.8zm-4.3-3.1a3.508 3.508 0 00-3.3-.1 3.517 3.517 0 00.9-3.2l.6.2c.302.18.668.217 1 .1.213-.021.418-.089.6-.2l.1-.1 2.9-1.5h.1l-2.4 2.4a2.202 2.202 0 00-.6 1.5zm-10.6-6.9a2.73 2.73 0 01-.8-1.9 3.076 3.076 0 01.2-2.1l.1-.1a3.156 3.156 0 012.2-1.3 3.07 3.07 0 013.7 2.3 3.039 3.039 0 01-2.2 3.7c-.2 0-.3.1-.5.1a3.11 3.11 0 01-2.6-.6l-.1-.1zm11-16.5l2.3 2.4.1.1-3-1.5a1.807 1.807 0 00-1.6-.1l-.6.3a3.64 3.64 0 00-.9-3.2 3.502 3.502 0 003.3-.1l-.1.6a1.742 1.742 0 00.5 1.5zm1-6.9c.86.8 2.037 1.168 3.2 1l-.3.6a1.807 1.807 0 00.1 1.6l.1.1 1.5 2.9v.1l-2.3-2.4a2.202 2.202 0 00-1.5-.6l-.7.1a4.443 4.443 0 00-.1-3.4zm22.5 1.5l-.3-.6c.394.1.806.1 1.2 0a4.212 4.212 0 002-1 3.714 3.714 0 00.1 3.4l-.7-.1a1.495 1.495 0 00-1.5.6l-.1.1-2.3 2.3 1.5-3a2.006 2.006 0 00.1-1.7zm4.3 3.2a3.514 3.514 0 003.3.1 3.516 3.516 0 00-.9 3.2l-.6-.3a1.807 1.807 0 00-1.6.1l-.1.1-2.9 1.5h-.1l2.4-2.4c.383-.406.597-.942.6-1.5zm.5 18.6l-.8.4a2.618 2.618 0 00-.6.5c-.137.243-.173.53-.1.8l.2.9v.1l-1.7-.9a1.274 1.274 0 01-.7-.9l-.2-.9a.569.569 0 01.4-.7l.8-.4c.357-.173.78-.134 1.1.1l1.7.9zm.3.5c.326-.1.674-.1 1 0h.1c.362.172.622.506.7.9l.2.9-.1.4-.3.3-.8.4-.3.1c-.283.042-.57-.03-.8-.2a1.274 1.274 0 01-.7-.9l-.2-.9a.569.569 0 01.4-.7zm-10.8 6.4a2.685 2.685 0 00-.7-.8l-.8-.4a1.99 1.99 0 00.8-1.2c.364.309.823.485 1.3.5l-.4.8a1.542 1.542 0 00-.2 1.1zm-8.4-1l-.4-.8h.4a1.35 1.35 0 00.9-.5c.107.486.393.914.8 1.2l-.8.4a1.778 1.778 0 00-.7.8 1.972 1.972 0 00-.2-1.1zm-8.9-4.9a1.023 1.023 0 00-.6-.5l-.8-.5-.1-.1 1.7-.9a1.415 1.415 0 011.1-.1l.8.4a.669.669 0 01.4.7l-.2 1.1a1.6 1.6 0 01-.7.9l-1.7.9v-.1l.2-.9a2.214 2.214 0 00-.1-.9zm-.5.7l-.2.8a1.555 1.555 0 01-.6.8l-.1.1-.4.1a1.702 1.702 0 01-.7-.1l-.8-.4-.3-.3-.1-.4.2-.9a1.452 1.452 0 011.7-1h.1l.8.4c.3.3.5.6.4.9zm-.9-13.3l.8-.4c.502-.224.789-.758.7-1.3l-.2-.9v-.1l1.7.9c.362.172.622.506.7.9l.2.9a.569.569 0 01-.4.7l-.8.3-.3.1c-.283.042-.57-.03-.8-.2l-1.6-.9zm-.3-.6l-.3.1a1.494 1.494 0 01-.7-.1h-.1a1.274 1.274 0 01-.7-.9l-.2-.8.1-.4.3-.3.8-.4a1.403 1.403 0 011.8.8v.1l.2.9a.569.569 0 01-.4.7zm10.7-6.4c.146.331.391.611.7.8l.8.4a1.99 1.99 0 00-.8 1.2 2.098 2.098 0 00-1.3-.5l.4-.8a1.09 1.09 0 00.2-1.1zm8.4 1.1l.4.8a2.1 2.1 0 00-1.3.5 1.99 1.99 0 00-.8-1.2l.8-.4c.309-.189.554-.469.7-.8.009.375.076.746.2 1.1zm9 4.9c.126.239.342.419.6.5l.8.4.1.1-1.7.9-.4.1a1.702 1.702 0 01-.7-.1l-.8-.4a.67.67 0 01-.4-.7l.2-.9c.115-.376.364-.697.7-.9l1.7-.9v.1l-.2 1c-.066.27-.031.554.1.8zm.4-.7l.2-.9c.107-.326.317-.607.6-.8h.1a1.415 1.415 0 011.1-.1l.8.4.3.3.1.4-.2.9a1.6 1.6 0 01-.7.9l-.4.1a1.702 1.702 0 01-.7-.1l-.8-.4a.67.67 0 01-.4-.7zm1.6 3.5l-.4.8a1.212 1.212 0 00.2 1.5l.7.7.1.1-1.9.3a1.13 1.13 0 01-1.1-.3l-.7-.7a.605.605 0 01-.1-.8l.4-.8c.202-.319.529-.537.9-.6l1.9-.2zm.5.3c.193-.283.475-.494.8-.6h.1c.394-.107.815.008 1.1.3l.7.7.2.4-.1.4-.4.8c-.43.611-1.26.786-1.9.4a.098.098 0 01-.1-.1l-.7-.7a.605.605 0 01-.1-.8zm-6.9 10.1h.5c.331-.047.643-.186.9-.4l.1.9c.105.36.275.699.5 1a1.385 1.385 0 00-1.1-.2l-.9.1a1.7 1.7 0 000-1.4zm-17.7 1.3l-.9-.1a2.14 2.14 0 00-1.1.2c.294-.209.478-.54.5-.9l.2-.9c.38.267.835.407 1.3.4a2.827 2.827 0 000 1.3zm.1-14.2a1.476 1.476 0 00-1.3.4l-.1-.9a3.12 3.12 0 00-.5-1c.322.218.722.29 1.1.2l.9-.1a1.424 1.424 0 00-.1 1.4zm10.6-2.2h-.4a1.316 1.316 0 111.5-1.1 1.387 1.387 0 01-1.1 1.1zm1.4.9c.089.256.123.529.1.8a.97.97 0 01-.8.7h-.5a.95.95 0 01.6-1.8l.1.1zm-2.5-.5a.908.908 0 01.3.7 1.078 1.078 0 01-.8 1h-.2a1 1 0 010-2h.2a.908.908 0 01.5.3zm-2.1-.4a1.315 1.315 0 111.1-1.5 1.341 1.341 0 01-1.1 1.5zm-1.3.5h.2a.99.99 0 011.1.8.973.973 0 01-.7 1.1h-.2a.974.974 0 01-1.1-.7 1.028 1.028 0 01.7-1.2zm-1.3.4l-.4.1a1.225 1.225 0 11.4-.1zm.1 2.3l-.4.2h-.3a.991.991 0 01-.8-1.1.674.674 0 01.4-.6l.1-.1a.926.926 0 011.2.3.948.948 0 01-.2 1.3zm-1.7.1a1 1 0 11-1.4.2l.1-.1a1.048 1.048 0 011.3-.1zm-1.4 2a.931.931 0 01.6 1.2 1.471 1.471 0 01-.5.6l-.3.1h-.5a.932.932 0 01-.6-1.2l.1-.1.4-.4c.239-.149.519-.219.8-.2zm.3 3.4a.975.975 0 01-.8 1h-.2a1.002 1.002 0 01-1-1v-.2a.55.55 0 01.3-.5.967.967 0 011.4 0 .908.908 0 01.3.7zm-1.1-4a1.342 1.342 0 11-.6-1.8c.636.354.896 1.135.6 1.8zm-2 3.7h-.4a1.316 1.316 0 111.5-1.1 1.273 1.273 0 01-1.1 1.1zm1.1 1.7a1.316 1.316 0 11-1.5-1.1 1.21 1.21 0 011.5 1.1zm-2.8-4l-.4-.8a1.772 1.772 0 00-.8-.7h.6l.4-.1.8-.4c-.004.481.175.945.5 1.3-.462.03-.877.294-1.1.7zm-.3 1.5c.086.499.428.917.9 1.1a2.01 2.01 0 00-.9 1.1l-.7-.7a1.905 1.905 0 00-1-.5h.1c.337-.028.654-.169.9-.4zm.3 3.7c.268.381.655.663 1.1.8a2.104 2.104 0 00-.5 1.3l-.8-.4a1.373 1.373 0 00-1.1-.1c.311-.178.582-.416.8-.7zm1.3 2.6a1.341 1.341 0 011.28-1.939 1.341 1.341 0 01.52 2.539l-.4.1a1.345 1.345 0 01-1.4-.7zm2-2.5v-.2a1.273 1.273 0 01.1-.6c.126-.24.342-.419.6-.5a.949.949 0 11.6 1.8h-.2a.816.816 0 01-1.1-.5zm1.4 1a1 1 0 111.2 1.6l-.4.2a.808.808 0 01-.9-.4l-.1-.1a.933.933 0 01.2-1.3zm1.5 1.9a1 1 0 111.6 1.2c-.2.2-.4.4-.6.4a.846.846 0 01-.7-.2l-.1-.1a.866.866 0 01-.2-1.3zm1.6-.5a1.633 1.633 0 00-1.2-.2v-.1a2.76 2.76 0 00-.1-.9l-.1-.2a1.698 1.698 0 00-1-.6l.1-.1c.131-.281.166-.597.1-.9l-.1-.2a1.418 1.418 0 00-.8-.9l.1-.1c.229-.208.371-.493.4-.8v-.2a1.602 1.602 0 00-.5-1.1h.1c.268-.118.482-.332.6-.6l.1-.2a1.672 1.672 0 00-.1-1.2h.1a1.24 1.24 0 00.8-.4l.1-.2c.218-.36.29-.789.2-1.2h.1a2.79 2.79 0 00.9-.1l.2-.1c.312-.253.524-.607.6-1l.1.1c.281.131.597.166.9.1l.2-.1c.404-.12.734-.413.9-.8l.1.1c.207.228.493.371.8.4h.2a1.608 1.608 0 001.1-.5v.1c.118.268.332.482.6.6l.2.1c.399.116.826.081 1.2-.1v.1c.029.307.171.592.4.8l.2.1c.359.218.789.29 1.2.2v.1c-.016.303.018.607.1.9l.1.2c.252.311.606.524 1 .6l-.1.1a1.416 1.416 0 00-.1.9l.1.2c.12.404.413.733.8.9l-.1.1a1.232 1.232 0 00-.4.8v.2c.017.417.197.812.5 1.1h-.1a1.164 1.164 0 00-.6.6l-.1.2c-.117.398-.081.826.1 1.2h-.1a1.23 1.23 0 00-.8.4l-.1.2c-.218.359-.29.789-.2 1.2h-.1a2.739 2.739 0 00-.9.1l-.2.1a1.698 1.698 0 00-.6 1l-.1-.1a1.403 1.403 0 00-.9-.1l-.2.1c-.404.12-.734.413-.9.8l-.1-.1a1.23 1.23 0 00-.8-.4h-.2a1.604 1.604 0 00-1.1.5v-.1a1.164 1.164 0 00-.6-.6l-.2-.1a1.667 1.667 0 00-1.2.1v-.1a1.232 1.232 0 00-.4-.8zm12.5-12.9l.9.1c.378.031.757-.038 1.1-.2a1.192 1.192 0 00-.5.9l-.2 1a2.19 2.19 0 00-1.3-.4 1.7 1.7 0 000-1.4zm1.4 7.5a1.315 1.315 0 111.1-1.5 1.341 1.341 0 01-1.1 1.5zm0 .5a1.34 1.34 0 011.1 1.5 1.273 1.273 0 01-1.1 1.1h-.4a1.341 1.341 0 01-1.1-1.5 1.287 1.287 0 011.5-1.1zm.1-3.6c.309-.364.486-.823.5-1.3l.8.4c.337.185.735.221 1.1.1a2.71 2.71 0 00-.8.7l-.4.8a2.397 2.397 0 00-1.2-.7zm-.1-1.9a1.318 1.318 0 01-.6 1.8l-.4.1a1.316 1.316 0 01-.4-2.6 1.42 1.42 0 011.4.7zm-1.6 5.3v.2c-.1.4-.4.8-.8.8h-.2a1 1 0 010-2 .945.945 0 011 1zm-.4-2.7v.2a.973.973 0 01-.7 1.1h-.2a.974.974 0 01-1.1-.7.895.895 0 01.6-1.2 1.072 1.072 0 011.4.6zm-1.5-1.1l-.4.2a.962.962 0 01-.3-1.9.806.806 0 01.9.4l.1.1a.837.837 0 01-.3 1.2zm-1.4-1.9a1.058 1.058 0 01-1.4.2c-.2-.2-.4-.4-.4-.6a.842.842 0 01.2-.7 1.057 1.057 0 011.4-.2l.1.1c.122.152.223.32.3.5-.02.244-.088.482-.2.7zm0 11.4a1.075 1.075 0 01-.2 1.4l-.1.1-.3.1h-.3a.962.962 0 01.3-1.9c.2-.1.4 0 .6.3zm-8.6 1.3a.948.948 0 111.8.6.97.97 0 01-.8.7h-.5l-.1-.2-.4-.4a.846.846 0 010-.7zm1.9 1.6a1.34 1.34 0 011.1 1.5 1.273 1.273 0 01-1.1 1.1h-.4a1.316 1.316 0 11.4-2.6zm.7-.3a.908.908 0 01-.3-.7 1 1 0 112 0 1.078 1.078 0 01-.8 1h-.4a.551.551 0 01-.5-.3zm2.1.3a1.315 1.315 0 11-1.1 1.5 1.21 1.21 0 011.1-1.5zm1.2-.4h-.2a.962.962 0 11.8-1.1c.2.6-.1.9-.6 1.1zm1.4-.4a1.341 1.341 0 111.2 2.4l-.4.1a1.341 1.341 0 01-1.5-1.1 1.164 1.164 0 01.7-1.4zm1.6-2.5a1 1 0 111.4-.2l-.1.1a.943.943 0 01-1.3.1zm1.4-2a.949.949 0 111.2-.6l-.1.1-.4.4-.3.1zm.8.7a1.342 1.342 0 11.6 1.8 1.318 1.318 0 01-.6-1.8zm3.7-1.4l.4.8c.189.309.468.553.8.7a2.073 2.073 0 00-1.1.1l-.8.4a1.9 1.9 0 00-.5-1.3 1.526 1.526 0 001.2-.7zm.2-1.5a1.44 1.44 0 00-.9-1.1 2.01 2.01 0 00.9-1.1l.7.7c.276.263.624.437 1 .5a1.769 1.769 0 00-1 .4zm-.8-9.7c-.21.17-.447.305-.7.4h-.3l-.9-.1c-.3 0-.5-.3-.6-.6l-.1-.9a1.16 1.16 0 01.4-1l1.4-1.4v.1l.1.9a1.41 1.41 0 001 1.1l.9.1h.1zm-2.8 2.3c-.21.17-.447.305-.7.4a1.315 1.315 0 111.1-1.5c.021.405-.124.802-.4 1.1zm-.3-2.6c-.445-.2-.955-.2-1.4 0a1.792 1.792 0 00-.4-1.4l.9-.1c.34-.083.651-.255.9-.5-.218.322-.29.721-.2 1.1zm-.1-2.7a1.274 1.274 0 01-.9.7l-.9.2a.57.57 0 01-.7-.4l-.4-.9a1.377 1.377 0 01.1-1.1l.9-1.7.1.1.4.9c.136.223.305.425.5.6.243.137.531.173.8.1l.9-.2h.1zm-2.5 1.4a1.341 1.341 0 01.139 2.319 1.341 1.341 0 01-1.939-1.719 1.317 1.317 0 011.8-.6zm-1.5-3.2a1.148 1.148 0 01-.6.9l-.8.4-.2.1a.738.738 0 01-.6-.2l-.7-.7a1.13 1.13 0 01-.3-1.1l.3-1.9.1.1.7.7a1.212 1.212 0 001.5.2l.8-.4.1-.1zm-2.6 1.6a1.44 1.44 0 00-1.1.9 2.01 2.01 0 00-1.1-.9l.6-.7c.263-.276.437-.625.5-1 .027.366.166.716.4 1zm-2-1l-.7.7-.3.1-.4-.1-.8-.4a1.326 1.326 0 01-.6-1l-.3-1.9.1.1.8.4a1.212 1.212 0 001.5-.2l.7-.7.1-.1.3 1.9c.038.438-.107.872-.4 1.2zm-3.9.9l-.4.8a.672.672 0 01-.7.4l-1-.2a1.6 1.6 0 01-.9-.7l-.9-1.7h.1l.9.2h.4l.3-.1c.239-.126.419-.342.5-.6l.4-.9.1-.1 1.1 1.7c.23.358.267.808.1 1.2zm-3.1 1c.209.294.54.478.9.5l.9.2c-.267.38-.407.835-.4 1.3a1.7 1.7 0 00-1.4 0l.1-.9a1.112 1.112 0 00-.1-1.1zm1.7 2.8a1.344 1.344 0 11-1.9 0 1.39 1.39 0 011.9 0zm-2.2-.8c0 .3-.3.5-.6.6l-.9.1a1.161 1.161 0 01-1-.4l-1.4-1.4h.1l.9-.1c.255-.038.497-.142.7-.3a.908.908 0 00.3-.7l.1-.9v-.2l1.4 1.4c.276.297.421.694.4 1.1zm-4.1 5.7l.4.8a.754.754 0 01-.1.8l-.7.7a.866.866 0 01-.6.3h-.5l-1.9-.3.1-.1.7-.7c.191-.196.328-.437.4-.7a2.21 2.21 0 00-.1-.8l-.4-.9-.1-.1 1.9.3c.357.149.668.391.9.7zm-2.9 1.1l-.7.7a.866.866 0 01-.6.3h-.5a1.152 1.152 0 01-.9-.6l-.4-.8-.1-.4.2-.4.7-.7a1.3 1.3 0 011.9.2l.1.1.4.8a.754.754 0 01-.1.8zm-1.9 1.5h.1l3.2.5-3.3.5a1.943 1.943 0 00-1.4.9l-.2.7a3.872 3.872 0 00-2.7-2.1 3.817 3.817 0 002.7-2.1l.3.6c.217.546.716.93 1.3 1zm-1.3 3.1l.4-.8a1.422 1.422 0 011.9-.4.097.097 0 01.1.1l.7.7a.605.605 0 01.1.8l-.4.8a1.562 1.562 0 01-.8.6h-.1a1.13 1.13 0 01-1.1-.3l-.7-.7-.2-.4zm3.4 1.4l.4-.8a1.212 1.212 0 00-.2-1.5l-.7-.7-.1-.1 1.9-.3c.394-.107.815.008 1.1.3l.7.7a.605.605 0 01.1.8l-.4.8a1.152 1.152 0 01-.9.6l-1.9.2zm4.3 4.7a1.429 1.429 0 011-.4l.9.1c.3 0 .5.3.6.6l.1.9c.021.405-.124.802-.4 1.1l-1.4 1.4v-.1l-.1-.9a1.41 1.41 0 00-1-1.1l-.9-.1h-.2zm2.8-2.4a1.343 1.343 0 110 1.9 1.39 1.39 0 010-1.9zm.3 2.6c.445.2.955.2 1.4 0a1.793 1.793 0 00.4 1.4l-.9.1c-.34.082-.651.255-.9.5a1.39 1.39 0 00.2-1.1zm.1 2.8a1.27 1.27 0 01.9-.7l.9-.2a.568.568 0 01.7.4l.4.9c.122.364.086.763-.1 1.1l-.9 1.7-.1-.1-.4-.9a1.209 1.209 0 00-1.3-.7l-.9.2h-.1zm2.5-1.4a1.342 1.342 0 111.8-.6 1.206 1.206 0 01-1 .7 1.975 1.975 0 01-.8-.1zm1.4 3.2a1.15 1.15 0 01.6-.9l.8-.4a.754.754 0 01.8.1l.7.7c.292.285.406.706.3 1.1l-.3 1.8-.1-.1-.7-.7a1.612 1.612 0 00-.7-.4 2.168 2.168 0 00-.8.1l-.7.5-.1.1zm2.7-1.7a1.443 1.443 0 001.1-.9c.245.423.636.743 1.1.9l-.6.7a1.902 1.902 0 00-.5 1 1.776 1.776 0 00-.4-1zm1.9 1.1l.7-.7a.605.605 0 01.8-.1l.8.4c.344.222.565.592.6 1l.3 1.9-.1-.1-.8-.4a1.212 1.212 0 00-1.5.2l-.7.7-.1.1-.3-1.9c-.008-.388.096-.77.3-1.1zm4-.9l.4-.9a.67.67 0 01.7-.4l.9.2c.376.114.696.363.9.7l.9 1.7h-.1l-.9-.2a1.209 1.209 0 00-1.3.7l-.4.9-.1.1-.9-1.7a.897.897 0 01-.1-1.1zm3-1.1a1.191 1.191 0 00-.9-.5l-.9-.2c.267-.381.407-.836.4-1.3.445.2.955.2 1.4 0l-.2.9c.009.375.076.746.2 1.1zm-.5-2.4a1.315 1.315 0 111.1-1.5c.07.441-.079.888-.4 1.2a1.142 1.142 0 01-.7.3zm1 .5c0-.3.3-.5.6-.6l.9-.1c.379-.039.753.11 1 .4l1.4 1.4h-.1l-.9.1c-.521.07-.93.479-1 1l-.1.9v.1l-1.4-1.4a1.506 1.506 0 01-.4-1.1zm4.1-5.8l-.4-.8a.754.754 0 01.1-.8l.7-.7a1.126 1.126 0 011.1-.3l1.9.3-.1.1-.7.7a1.212 1.212 0 00-.2 1.5l.4.8.1.1-1.9-.2a1.45 1.45 0 01-1-.7zm2.9-.3a.754.754 0 01.1-.8l.7-.7a1.69 1.69 0 011-.3h.1c.381.037.719.262.9.6l.4.8.1.4-.2.4-.7.7a.866.866 0 01-.6.3h-.5a1.152 1.152 0 01-.9-.6zm1.9-2.3l-3.3-.5 3.3-.5a1.946 1.946 0 001.4-.9l.3-.6a3.875 3.875 0 002.7 2.1 3.815 3.815 0 00-2.7 2.1l-.3-.6a1.726 1.726 0 00-1.4-1.1zm1.4-4.5l-.5-.4a1.84 1.84 0 00-1.6-.5h-.1l-3.2.5 3-1.5a1.703 1.703 0 001-1.3l.1-.7a3.483 3.483 0 003.2 1.1 4.224 4.224 0 00-1.9 2.8zm-5.4-7a1.276 1.276 0 01-.7.4h-.3l-.9-.1c-.3 0-.5-.3-.6-.6l-.1-.9a1.69 1.69 0 01.3-1l.1-.1a1.429 1.429 0 011-.4l.9.1.4.2.2.4.1.9c.087.413-.068.839-.4 1.1zm-4-3.6a1.274 1.274 0 01-.9.7l-.9.2a.57.57 0 01-.7-.4l-.4-.9c-.1-.326-.1-.675 0-1v-.1a1.27 1.27 0 01.9-.7l.9-.2.4.1.3.3.4.9c.201.339.201.761 0 1.1zm-2.1-2.7a1.885 1.885 0 00-1.3 1v.1l-1.5 2.9.5-3.3a2.155 2.155 0 00-.4-1.6l-.5-.5h.1a4.035 4.035 0 002.7-1.9 4.075 4.075 0 001.1 3.2zm-3.1-.5a1.426 1.426 0 01-.2 2l-.1.1-.8.4-.2.1a.738.738 0 01-.6-.2l-.7-.7a1.693 1.693 0 01-.3-1v-.1a1.15 1.15 0 01.6-.9l.8-.4.4-.1.4.2zm-2.6-.9a1.943 1.943 0 00-.9 1.4v.1l-.5 3.2-.5-3.3a1.943 1.943 0 00-.9-1.4l-.6-.3a3.514 3.514 0 002-2.7 3.753 3.753 0 002 2.7zm-3.1.5c.612.43.786 1.26.4 1.9a.098.098 0 01-.1.1l-.7.7-.4.2-.4-.1-.8-.4a1.56 1.56 0 01-.6-.8v-.1a1.13 1.13 0 01.3-1.1l.7-.7.4-.2.4.1zm-2.7 0a1.795 1.795 0 00-.4 1.6v.1l.5 3.2-1.5-3a1.7 1.7 0 00-1.3-1l-.7-.1a3.747 3.747 0 001.1-3.2 4.01 4.01 0 002.8 1.9zm-2.8 1.4a1.453 1.453 0 011 1.7v.1l-.5.9a1.002 1.002 0 01-.5.4h-.2l-.9-.2a1.562 1.562 0 01-.8-.6v-.1a1.415 1.415 0 01-.1-1.1l.4-.9.3-.3.4-.1zm-4.8 3.1a1.347 1.347 0 011.4 1.3v.1l-.1.9c0 .3-.3.5-.6.6l-.9.1a1.69 1.69 0 01-1-.3l-.1-.1a1.506 1.506 0 01-.4-1.1l.1-.9.2-.4.4-.2zm-4.3 7.8l3 1.5-3.3-.5a2.271 2.271 0 00-1.6.4l-.5.5a4.007 4.007 0 00-1.9-2.8h1a3.602 3.602 0 002.1-1.1l.1.7a2.369 2.369 0 001.1 1.3zm-3 2.8a3.081 3.081 0 01-2.6 2.5c-.36.1-.74.1-1.1 0a3.156 3.156 0 01-2.2-1.3l-.1-.1a2.8 2.8 0 01-.2-2 2.462 2.462 0 01.9-1.9l.1-.1a3.608 3.608 0 012.5-.6 3.144 3.144 0 012.7 3.5zm.7 7l.5.5a1.846 1.846 0 001.6.5h.1l3.2-.5-3 1.5a1.701 1.701 0 00-1 1.3l-.2.6a3.478 3.478 0 00-3.2-1.1 3.855 3.855 0 002-2.8zm5.3 7.1a1.429 1.429 0 011-.4l.9.1c.3 0 .5.3.6.6l.1.9c.008.356-.097.706-.3 1l-.1.1c-.21.17-.447.305-.7.4h-.3l-.9-.1-.4-.2-.2-.4-.1-.9a1.6 1.6 0 01.4-1.1zm4.1 3.5a1.27 1.27 0 01.9-.7l.9-.2a.568.568 0 01.7.4l.4.9c.1.325.1.674 0 1v.1a1.274 1.274 0 01-.9.7l-.9.2-.4-.1-.4-.3-.4-.8a1.672 1.672 0 01.1-1.2zm2.1 2.8a1.888 1.888 0 001.3-1v-.1l1.5-2.9-.6 3.3c-.084.565.06 1.14.4 1.6l.6.5a4.007 4.007 0 00-2.8 1.9 4.072 4.072 0 00-1.1-3.2zm3.1.5a1.426 1.426 0 01.2-2 .098.098 0 00.1-.1l.8-.4a.754.754 0 01.8.1l.7.7c.203.293.308.643.3 1v.1a1.148 1.148 0 01-.6.9l-.8.4-.3.2h-.2l-.4-.2zm2.5.9c.495-.309.825-.822.9-1.4v-.1l.5-3.2.5 3.3c.075.578.405 1.091.9 1.4l.6.3a3.517 3.517 0 00-2 2.7 3.75 3.75 0 00-2-2.7zm3.2-.6a1.336 1.336 0 01-.6-.9 1.13 1.13 0 01.3-1.1l.7-.7a.605.605 0 01.8-.1l.8.4c.283.193.494.474.6.8v.1c.106.394-.008.814-.3 1.1l-.7.7-.4.3-.4-.1zm2.7.1a1.796 1.796 0 00.4-1.6v-.1l-.5-3.2 1.5 3c.234.534.724.911 1.3 1l.7.1a3.75 3.75 0 00-1.1 3.2 4.007 4.007 0 00-2.8-1.9zm2.8-1.5a1.453 1.453 0 01-1-1.7v-.1l.4-.9a.67.67 0 01.7-.4l.9.2c.325.106.607.317.8.6v.1c.181.338.217.735.1 1.1l-.4.9-.3.3-.2.1h-.2zm4.8-3a1.348 1.348 0 01-1.4-1.3v-.1l.1-.9c0-.3.3-.5.6-.6l.9-.1a1.69 1.69 0 011 .3l.1.1c.276.297.421.694.4 1.1l-.1.9-.2.4-.4.2h-1zm4.2-7.8l-3-1.5 3.3.5a2.281 2.281 0 001.6-.4l.5-.5a4.007 4.007 0 001.9 2.8 4.2 4.2 0 00-3.2 1.1l-.1-.7a1.701 1.701 0 00-1-1.3zm3-2.8a3.234 3.234 0 013.7-2.5 3.156 3.156 0 012.2 1.3l.1.1a2.8 2.8 0 01.2 2 2.462 2.462 0 01-.9 1.9l-.1.1c-.417.3-.895.505-1.4.6-.36.1-.74.1-1.1 0a3.22 3.22 0 01-2.7-3.5zm3.8-3.7a3.181 3.181 0 01-3.7-2.5 3.094 3.094 0 012.8-3.5 3.163 3.163 0 012.5.6l.1.1c.505.504.792 1.186.8 1.9a3.077 3.077 0 01-.2 2.1l-.1.1a4.015 4.015 0 01-2.2 1.2zm0-11.2c.435.607.581 1.375.4 2.1v.1a3.392 3.392 0 01-1.7 2c-.299.19-.645.293-1 .3a3.233 3.233 0 01-3.3-1.6 3.19 3.19 0 011.6-4.2 3.343 3.343 0 012.6-.2h.1a3.178 3.178 0 011.3 1.5zm-3.1-4.7a2.56 2.56 0 011.2-2.3c1.6-1.2 3 .5 3.4 1 .422.584.665 1.279.7 2a1.697 1.697 0 01-.9 1.6 2.804 2.804 0 01-2.5.4h-.1a4.118 4.118 0 00-2.9.2 4.555 4.555 0 001.1-2.9zm-1.7-1.9a2.534 2.534 0 011 1.8v.1a3.505 3.505 0 01-2.9 3.4 2.858 2.858 0 01-2.6-.8 3.172 3.172 0 01.2-4.5 3.098 3.098 0 012.4-1h.1a2.688 2.688 0 011.8 1zm-4.4-3.5v-.2a2.801 2.801 0 01.4-2.5c1.2-1.7 3-.5 3.6-.1a3.323 3.323 0 011.3 1.6 1.94 1.94 0 01-.3 1.8 2.937 2.937 0 01-2.3 1.2h-.1a3.86 3.86 0 00-2.7 1.1 4.095 4.095 0 00.1-2.9zm-2.1-1.3c.672.24 1.214.746 1.5 1.4v.1a3.343 3.343 0 01-.2 2.6 3.19 3.19 0 01-4.2 1.6 3.243 3.243 0 01-1.2-4.4 3.386 3.386 0 012-1.7h.1a4.459 4.459 0 012 .4zm-5.7-4.4c.6-2 2.7-1.4 3.4-1.2a3.594 3.594 0 011.8 1.2c.394.512.506 1.187.3 1.8a2.923 2.923 0 01-1.8 1.8h-.1a4.064 4.064 0 00-2.2 1.9 3.95 3.95 0 00-.7-2.8v-.2a2.147 2.147 0 01-.7-2.5zm-2 2a2.462 2.462 0 011.9.9l.1.1c.501.768.713 1.689.6 2.6a2.98 2.98 0 01-3.3 2.8 3.045 3.045 0 01-2.8-3.3.902.902 0 01.1-.5 3.599 3.599 0 011.3-2.3l.1-.1a2.744 2.744 0 012-.2zm-4-4.8a3.603 3.603 0 012 .6c.515.412.81 1.04.8 1.7a2.677 2.677 0 01-1.2 2.3l-.1.1a3.666 3.666 0 00-1.5 2.5 3.797 3.797 0 00-1.6-2.5h-.2a2.845 2.845 0 01-1.1-2.3c.1-2.2 2.2-2.4 2.9-2.4zm-4.1 4.8a3.064 3.064 0 012.1.2l.1.1a3.368 3.368 0 011.3 2.3 3.339 3.339 0 01-2.5 3.8 3.22 3.22 0 01-3.5-2.8 3.502 3.502 0 01.6-2.6l.1-.1a2.616 2.616 0 011.8-.9zm-7.3-.3c-.6-2 1.4-2.8 2-3a3.037 3.037 0 012.1-.1c.61.21 1.09.689 1.3 1.3.272.882.125 1.84-.4 2.6l-.1.1a3.95 3.95 0 00-.7 2.8 4.18 4.18 0 00-2.3-1.8h-.2a3.204 3.204 0 01-1.7-1.9zm-1.9 4.3c.28-.68.82-1.22 1.5-1.5a2.392 2.392 0 012-.4h.1c2.492.792 3.192 3.985 1.26 5.747a3.342 3.342 0 01-.46.353 3.19 3.19 0 01-4.2-1.6 3.378 3.378 0 01-.2-2.6zm-5.5.4c-1.2-1.7.4-3.1 1-3.5a3.547 3.547 0 012-.8 1.694 1.694 0 011.6.9c.532.756.68 1.718.4 2.6v.1a4.13 4.13 0 00.2 2.9 3.86 3.86 0 00-2.7-1.1h-.2a2.486 2.486 0 01-2.3-1.1zm-.5 4.8a3.201 3.201 0 011-1.9 2.533 2.533 0 011.8-1h.1a3.49 3.49 0 012.4 1 3.172 3.172 0 01.2 4.5 3.173 3.173 0 01-4.5-.2 3.695 3.695 0 01-1-2.4zm-5.1 2.1c-1.7-1.2-.5-3.1-.1-3.6a3.317 3.317 0 011.6-1.3 1.936 1.936 0 011.8.3 2.934 2.934 0 011.2 2.3v.1c0 1.009.395 1.978 1.1 2.7a4.118 4.118 0 00-2.9-.2h-.2l-.4.1a2.289 2.289 0 01-2.1-.4zm1.4 2.5a2.586 2.586 0 011.4-1.5h.1a3.343 3.343 0 012.6.2 3.19 3.19 0 011.6 4.2 3.31 3.31 0 01-2.2 1.6 3.734 3.734 0 01-2.1-.3 3.392 3.392 0 01-1.7-2v-.1a2.254 2.254 0 01.3-2.1zm-3.3 5.8c-.435.066-.88.032-1.3-.1-1.9-.6-1.4-2.8-1.2-3.4a3.371 3.371 0 011.1-1.7 1.937 1.937 0 011.8-.3 2.918 2.918 0 011.8 1.8v.1a3.65 3.65 0 001.8 2.2 3.953 3.953 0 00-2.8.7h-.2c-.147.424-.55.707-1 .7zm.5 7.7a2.655 2.655 0 01-1.8 1.1h-.4c-2 0-2.2-2.2-2.2-2.8a4.563 4.563 0 01.5-2 2.085 2.085 0 011.6-.8 2.674 2.674 0 012.3 1.2l.1.1a4.293 4.293 0 002.4 1.6c-1 .212-1.889.78-2.5 1.6zm1.8 7.7l-.1.2a2.923 2.923 0 01-1.8 1.8l-.4.1c-1.6.2-2.3-1.6-2.5-2.2a3.043 3.043 0 01-.1-2.1c.21-.611.69-1.09 1.3-1.3a2.75 2.75 0 012.5.4l.1.1a3.953 3.953 0 002.8.7 4.556 4.556 0 00-1.8 2.3zm1 2.3a2.548 2.548 0 01-.4-2.1v-.1a3.39 3.39 0 011.7-2 3.125 3.125 0 014.3 1.2 3.19 3.19 0 01-1.6 4.2 3.597 3.597 0 01-1.1.4 3.832 3.832 0 01-1.5-.1h-.1a2.433 2.433 0 01-1.3-1.5zm3.1 4.7v.2a2.509 2.509 0 01-1.2 2.2c-.28.174-.583.309-.9.4-1.2.2-2.2-1-2.5-1.4a3.728 3.728 0 01-.7-2 1.696 1.696 0 01.9-1.6 2.552 2.552 0 012.4-.4h.1a4.13 4.13 0 002.9-.2 4.774 4.774 0 00-1 2.8zm1.6 1.9a2.538 2.538 0 01-1-1.8v-.1a3.49 3.49 0 011-2.4 3.172 3.172 0 014.5-.2 3.172 3.172 0 01-.2 4.5 3.526 3.526 0 01-1.9 1h-.6a2.388 2.388 0 01-1.8-1zm4.4 3.5l.1.2a2.802 2.802 0 01-.4 2.5c-1.2 1.7-3 .5-3.6.1a3.327 3.327 0 01-1.3-1.6 1.938 1.938 0 01.3-1.8 2.934 2.934 0 012.3-1.2h.7a4.12 4.12 0 002.1-1 3.859 3.859 0 00-.2 2.8zm2.2 1.3a2.591 2.591 0 01-1.5-1.4v-.1a3.343 3.343 0 01.2-2.6 3.189 3.189 0 014.2-1.6 3.243 3.243 0 011.2 4.4 3.39 3.39 0 01-2 1.7h-.3a3.436 3.436 0 01-1.8-.4zm5.7 4.5a1.807 1.807 0 01-1.6 1.4 3.727 3.727 0 01-1.8-.2 3.6 3.6 0 01-1.8-1.2 1.94 1.94 0 01-.3-1.8 2.918 2.918 0 011.8-1.8h.1a4.072 4.072 0 002.2-1.9 3.953 3.953 0 00.7 2.8v.2a2.267 2.267 0 01.7 2.5zm1.9-2.1a2.465 2.465 0 01-1.9-.9 3.885 3.885 0 01-.6-2.6 3.148 3.148 0 013.5-2.8 3.282 3.282 0 012.5 3.8 3.601 3.601 0 01-1.3 2.3l-.1.1c-.2.1-.5.2-.7.3-.5-.1-.9-.1-1.4-.2zm4.8 4.8c-.2 0-.5.1-.7.1a4.566 4.566 0 01-2-.5 2.138 2.138 0 01-.8-1.7 2.674 2.674 0 011.2-2.3l.1-.1a3.666 3.666 0 001.5-2.5c.212 1 .781 1.888 1.6 2.5h.2a2.842 2.842 0 011.1 2.3 2.289 2.289 0 01-2.2 2.2zm3.3-4.8a3.076 3.076 0 01-2.1-.2l-.1-.1a3.372 3.372 0 01-1.3-2.3 3.038 3.038 0 012.2-3.7 3.07 3.07 0 013.7 2.3c0 .2.1.3.1.5a3.499 3.499 0 01-.6 2.6l-.1.1a2.343 2.343 0 01-1.8.8zm7.3.4c.6 2-1.4 2.8-2 3-.2.1-.5.1-.7.2a2.261 2.261 0 01-1.4-.1 2.1 2.1 0 01-1.3-1.3 3.011 3.011 0 01.4-2.6l.1-.1a3.953 3.953 0 00.7-2.8 4.072 4.072 0 002.2 1.9h.2a2.368 2.368 0 011.8 1.8zm2-4.3c-.28.68-.82 1.22-1.5 1.5a6.182 6.182 0 01-1.2.5h-.9a3.39 3.39 0 01-2-1.7c-1.222-2.008.186-4.585 2.536-4.64a3.051 3.051 0 012.664 1.44c.105.11.175.249.2.4.322.793.392 1.666.2 2.5zm5.4-.5c1.2 1.7-.5 3.1-1 3.5a3.289 3.289 0 01-1.6.7h-.4a1.698 1.698 0 01-1.6-.9 2.962 2.962 0 01-.4-2.6v-.1a4.13 4.13 0 00-.2-2.9 3.865 3.865 0 002.7 1.1h.2c.906.041 1.748.48 2.3 1.2zm.6-4.7a3.207 3.207 0 01-1 1.9 2.751 2.751 0 01-1.6 1h-.3a3.495 3.495 0 01-2.4-1 3.126 3.126 0 01-.4-4.3 3.033 3.033 0 014.3-.4c.124.114.225.249.3.4a3.592 3.592 0 011.1 2.4zm5-2.2c1.7 1.2.5 3.1.1 3.6a3.323 3.323 0 01-1.6 1.3l-.3.1a2.028 2.028 0 01-1.5-.4 2.937 2.937 0 01-1.2-2.3v-.1a3.863 3.863 0 00-1.1-2.7 4.13 4.13 0 002.9.2h.2a2.731 2.731 0 012.5.3zm-1.3-2.5a2.591 2.591 0 01-1.4 1.5h-.1l-.5.1c-2.373.676-4.588-1.47-3.987-3.862a3.204 3.204 0 014.187-2.238c.2.1.3.1.4.2a3.39 3.39 0 011.7 2v.1a2.692 2.692 0 01-.3 2.2zm4.5-5.7c1.9.6 1.4 2.8 1.2 3.4a4.194 4.194 0 01-1.1 1.8 1.941 1.941 0 01-1.8.3 2.923 2.923 0 01-1.8-1.8v-.1a3.647 3.647 0 00-1.8-2.2h1.1a3.638 3.638 0 001.7-.7h.2a2.087 2.087 0 012.3-.7zm2.2-4a2.227 2.227 0 01-1.3.8h-.4a2.803 2.803 0 01-2.3-1.2l-.1-.1a4.283 4.283 0 00-2.4-1.6c1-.212 1.889-.781 2.5-1.6v-.2a2.795 2.795 0 012.2-1.1c2 0 2.2 2.2 2.2 2.8a2.7 2.7 0 01-.4 2.2zm18.7 19.9a3.574 3.574 0 01-3.6 3.8h-.5a3.843 3.843 0 01-4.1-3.3v-8l-.6.3v7.3a4.354 4.354 0 004.2 4.5h.6a4.15 4.15 0 004.7-3.8v-8.1l-.7.1zm-.8-24.7h-6.1c0-2.5 6.1-3.1 6.1-6.8 0-2.3-2-3.3-4.2-3.3a7.036 7.036 0 00-3.8 1.1l.3 1.6a6.612 6.612 0 013.3-1.2c1.3 0 2.4.5 2.4 1.8 0 2.8-6.3 2.9-6.3 7.3v1.1h8.6zm-4.1 3.8h-3.9v11.6h3.9a5.497 5.497 0 005.9-5.1v-.7a5.434 5.434 0 00-5.2-5.8zm0 10.9h-3.2v-10.3h3.2a4.834 4.834 0 015.2 4.5v.7a4.904 4.904 0 01-4.5 5.2 1.702 1.702 0 00-.7-.1zm11.7 2.7l-5.1 11.6h.7l1.3-3.1h6.8l1.4 3.2.7-.2-5.1-11.7zm-2.8 7.9l3.1-7.2 3.1 7.2zm-27.8-46.1h.4v-2.4h.8l.1-.3h-2.2v.3h.9zm25.8 8.9l3.2-4.5 3.5 4.7 2.2-.3-4.3-5.9 3.9-5.6h-2.2l-2.8 4.2-3-4.3-2.2.4 3.9 5.5-4.3 6 2.1-.2zm-2.5-1.7h-6.3v-3.4h5.7l-.2-1.7h-5.5v-3h6.1v-1.7h-8.1v11.6h8.3zm-21.4-9.2l.9 1.4h.2l.9-1.4v2l.4-.1v-2.6h-.3l-1 1.5-1-1.5h-.3v2.6h.3zm32.3 18.7c0-3.3-1.7-6-5.1-6-3.5 0-5.1 2.7-5.1 6s1.7 6 5.1 6c3.4 0 5.1-2.6 5.1-6zm-8.2 0c0-2.6 1-4.4 3.1-4.4s3.1 1.8 3.1 4.4c0 2.6-1 4.4-3.1 4.4s-3.1-1.8-3.1-4.4z" fill="currentColor"/></svg>
