<svg viewBox="0 0 41 41" xmlns="http://www.w3.org/2000/svg"><path d="M8.684 1.569c-1.156.701-1.786 1.577-2.206 3.119-.21.876-.175.91 2.731 1.506 3.362.666 6.934 2.278 10.646 4.73 6.864 4.625 9.91 5.956 14.113 6.132 1.435.07 2.626.245 2.626.42s.35-.84.35-2.312c0-2.733-.7-3.469-3.992-4.065-2.801-.525-6.373-2.242-11.066-5.325C14.917 1.184 11.24-.007 8.684 1.569z" fill="#2e35b1"/><path d="M11.211 37.778c.296-.233-.358-2.674-.904-4.81-.918-3.524-.979-4.61-.732-10.294.397-8.186.046-11.22-1.65-14.588-.698-1.454-1.361-2.687-1.422-2.722-.485-.28-3.177 1.442-3.685 2.321-.49.85-.45 1.48.36 4.213 1.116 3.882 1.156 4.512.882 11.434-.354 9.303.056 11.886 2.103 13.594.852.695 1.481.937 2.87 1.052.986.043 1.964-.04 2.178-.2z" fill="#eae726"/><path d="M36.799 17.625c-.35-.14-2.137 1.647-3.712 3.189-2.592 2.557-3.502 3.153-8.545 5.78-7.284 3.75-9.735 5.572-11.801 8.725-.91 1.331-1.646 2.523-1.646 2.593 0 .56 2.836 2.032 3.852 2.032.98 0 1.506-.35 3.467-2.418 2.801-2.908 3.326-3.258 9.455-6.482 8.23-4.344 10.26-5.99 10.716-8.619.175-1.086.07-1.752-.526-3.013-.455-.876-1.015-1.682-1.26-1.787z" fill="#c43333"/></svg>
